<svg xmlns="http://www.w3.org/2000/svg" xmlns:xlink="http://www.w3.org/1999/xlink" width="1200" zoomAndPan="magnify" viewBox="0 0 900 899.99999" height="1200" preserveAspectRatio="xMidYMid meet" version="1.0"><defs><clipPath id="12bf7c1306"><path d="M 74.871094 74.890625 L 826 74.890625 L 826 825.109375 L 74.871094 825.109375 Z M 74.871094 74.890625 " clip-rule="nonzero"/></clipPath><clipPath id="38b98ffd0b"><path d="M 149.871094 74.890625 L 750.128906 74.890625 C 791.550781 74.890625 825.128906 108.472656 825.128906 149.890625 L 825.128906 750.109375 C 825.128906 791.527344 791.550781 825.109375 750.128906 825.109375 L 149.871094 825.109375 C 108.449219 825.109375 74.871094 791.527344 74.871094 750.109375 L 74.871094 149.890625 C 74.871094 108.472656 108.449219 74.890625 149.871094 74.890625 Z M 149.871094 74.890625 " clip-rule="nonzero"/></clipPath><clipPath id="10ea100fdc"><path d="M 131.289062 131.308594 L 768.789062 131.308594 L 768.789062 768.808594 L 131.289062 768.808594 Z M 131.289062 131.308594 " clip-rule="nonzero"/></clipPath><clipPath id="68a256cee8"><path d="M 137.289062 131.308594 L 762.707031 131.308594 C 764.296875 131.308594 765.824219 131.941406 766.949219 133.066406 C 768.074219 134.191406 768.707031 135.71875 768.707031 137.308594 L 768.707031 762.6875 C 768.707031 764.28125 768.074219 765.804688 766.949219 766.929688 C 765.824219 768.054688 764.296875 768.6875 762.707031 768.6875 L 137.289062 768.6875 C 135.695312 768.6875 134.171875 768.054688 133.046875 766.929688 C 131.917969 765.804688 131.289062 764.28125 131.289062 762.6875 L 131.289062 137.308594 C 131.289062 135.71875 131.917969 134.191406 133.046875 133.066406 C 134.171875 131.941406 135.695312 131.308594 137.289062 131.308594 Z M 137.289062 131.308594 " clip-rule="nonzero"/></clipPath><clipPath id="238f118867"><path d="M 298.539062 356.804688 L 601.351562 356.804688 L 601.351562 543.179688 L 298.539062 543.179688 Z M 298.539062 356.804688 " clip-rule="nonzero"/></clipPath><clipPath id="c9dec72110"><path d="M 175.964844 176.679688 L 215.710938 176.679688 L 215.710938 216.425781 L 175.964844 216.425781 Z M 175.964844 176.679688 " clip-rule="nonzero"/></clipPath><clipPath id="ad7c69f03e"><path d="M 195.839844 176.679688 C 184.863281 176.679688 175.964844 185.578125 175.964844 196.554688 C 175.964844 207.527344 184.863281 216.425781 195.839844 216.425781 C 206.8125 216.425781 215.710938 207.527344 215.710938 196.554688 C 215.710938 185.578125 206.8125 176.679688 195.839844 176.679688 Z M 195.839844 176.679688 " clip-rule="nonzero"/></clipPath><clipPath id="c237e4123c"><path d="M 242.929688 176.679688 L 282.675781 176.679688 L 282.675781 216.425781 L 242.929688 216.425781 Z M 242.929688 176.679688 " clip-rule="nonzero"/></clipPath><clipPath id="160b995685"><path d="M 262.800781 176.679688 C 251.824219 176.679688 242.929688 185.578125 242.929688 196.554688 C 242.929688 207.527344 251.824219 216.425781 262.800781 216.425781 C 273.777344 216.425781 282.675781 207.527344 282.675781 196.554688 C 282.675781 185.578125 273.777344 176.679688 262.800781 176.679688 Z M 262.800781 176.679688 " clip-rule="nonzero"/></clipPath><clipPath id="28400f4db1"><path d="M 312.078125 176.679688 L 351.824219 176.679688 L 351.824219 216.425781 L 312.078125 216.425781 Z M 312.078125 176.679688 " clip-rule="nonzero"/></clipPath><clipPath id="337e2364a4"><path d="M 331.953125 176.679688 C 320.976562 176.679688 312.078125 185.578125 312.078125 196.554688 C 312.078125 207.527344 320.976562 216.425781 331.953125 216.425781 C 342.929688 216.425781 351.824219 207.527344 351.824219 196.554688 C 351.824219 185.578125 342.929688 176.679688 331.953125 176.679688 Z M 331.953125 176.679688 " clip-rule="nonzero"/></clipPath></defs><g clip-path="url(#12bf7c1306)"><g clip-path="url(#38b98ffd0b)"><path fill="#ffffff" d="M 74.871094 74.890625 L 825.085938 74.890625 L 825.085938 825.109375 L 74.871094 825.109375 Z M 74.871094 74.890625 " fill-opacity="1" fill-rule="nonzero"/></g></g><g clip-path="url(#10ea100fdc)"><g clip-path="url(#68a256cee8)"><path stroke-linecap="butt" transform="matrix(0.75, 0, 0, 0.75, 131.287673, 131.308549)" fill="none" stroke-linejoin="miter" d="M 8.001853 0.0000594958 L 841.892575 0.0000594958 C 844.012367 0.0000594958 846.048826 0.84381 847.548826 2.34381 C 849.048826 3.84381 849.892576 5.880269 849.892576 8.00006 L 849.892576 841.838699 C 849.892576 843.963699 849.048826 845.99495 847.548826 847.49495 C 846.048826 848.99495 844.012367 849.8387 841.892575 849.8387 L 8.001853 849.8387 C 5.876853 849.8387 3.845603 848.99495 2.345603 847.49495 C 0.840394 845.99495 0.00185249 843.963699 0.00185249 841.838699 L 0.00185249 8.00006 C 0.00185249 5.880269 0.840394 3.84381 2.345603 2.34381 C 3.845603 0.84381 5.876853 0.0000594958 8.001853 0.0000594958 Z M 8.001853 0.0000594958 " stroke="#000000" stroke-width="20" stroke-opacity="1" stroke-miterlimit="4"/></g></g><g clip-path="url(#238f118867)"><path fill="#f5771d" d="M 601.425781 496.582031 C 601.425781 522.328125 580.574219 543.179688 554.835938 543.179688 L 368.457031 543.179688 C 329.867188 543.179688 298.539062 511.898438 298.539062 473.3125 C 298.539062 434.675781 329.867188 403.398438 368.457031 403.398438 C 372.484375 403.398438 376.464844 403.75 380.339844 404.40625 C 396.308594 375.996094 426.734375 356.800781 461.644531 356.800781 C 513.125 356.800781 554.835938 398.507812 554.835938 449.992188 C 580.574219 449.992188 601.425781 470.847656 601.425781 496.582031 " fill-opacity="1" fill-rule="nonzero"/></g><g clip-path="url(#c9dec72110)"><g clip-path="url(#ad7c69f03e)"><path fill="#000000" d="M 175.964844 176.679688 L 215.710938 176.679688 L 215.710938 216.425781 L 175.964844 216.425781 Z M 175.964844 176.679688 " fill-opacity="1" fill-rule="nonzero"/></g></g><g clip-path="url(#c237e4123c)"><g clip-path="url(#160b995685)"><path fill="#000000" d="M 242.929688 176.679688 L 282.675781 176.679688 L 282.675781 216.425781 L 242.929688 216.425781 Z M 242.929688 176.679688 " fill-opacity="1" fill-rule="nonzero"/></g></g><g clip-path="url(#28400f4db1)"><g clip-path="url(#337e2364a4)"><path fill="#000000" d="M 312.078125 176.679688 L 351.824219 176.679688 L 351.824219 216.425781 L 312.078125 216.425781 Z M 312.078125 176.679688 " fill-opacity="1" fill-rule="nonzero"/></g></g></svg>