<svg xmlns="http://www.w3.org/2000/svg" xmlns:xlink="http://www.w3.org/1999/xlink" width="150" zoomAndPan="magnify"
     viewBox="0 0 112.5 82.499998" height="110" preserveAspectRatio="xMidYMid meet" version="1.0">
    <defs>
        <clipPath id="3a4ca4c0e3">
            <path d="M 0.0898438 0 L 111.914062 0 L 111.914062 82.003906 L 0.0898438 82.003906 Z M 0.0898438 0 "
                  clip-rule="nonzero"/>
        </clipPath>
        <clipPath id="9e4251cc73">
            <path d="M 3.191406 19.878906 L 92.460938 19.878906 L 92.460938 79.863281 L 3.191406 79.863281 Z M 3.191406 19.878906 "
                  clip-rule="nonzero"/>
        </clipPath>
        <clipPath id="f829d7d9a3">
            <path d="M 9.15625 19.878906 L 86.414062 19.878906 C 87.996094 19.878906 89.511719 20.507812 90.632812 21.625 C 91.75 22.746094 92.378906 24.261719 92.378906 25.84375 L 92.378906 73.898438 C 92.378906 75.480469 91.75 76.996094 90.632812 78.113281 C 89.511719 79.234375 87.996094 79.863281 86.414062 79.863281 L 9.15625 79.863281 C 7.574219 79.863281 6.054688 79.234375 4.9375 78.113281 C 3.820312 76.996094 3.191406 75.480469 3.191406 73.898438 L 3.191406 25.84375 C 3.191406 24.261719 3.820312 22.746094 4.9375 21.625 C 6.054688 20.507812 7.574219 19.878906 9.15625 19.878906 Z M 9.15625 19.878906 "
                  clip-rule="nonzero"/>
        </clipPath>
        <clipPath id="be29cf9251">
            <path d="M 3.191406 19.878906 L 92.648438 19.878906 L 92.648438 79.519531 L 3.191406 79.519531 Z M 3.191406 19.878906 "
                  clip-rule="nonzero"/>
        </clipPath>
        <clipPath id="1bcb7fdbce">
            <path d="M 9.152344 19.878906 L 86.40625 19.878906 C 87.988281 19.878906 89.503906 20.507812 90.621094 21.625 C 91.742188 22.746094 92.367188 24.261719 92.367188 25.84375 L 92.367188 73.890625 C 92.367188 75.472656 91.742188 76.992188 90.621094 78.109375 C 89.503906 79.226562 87.988281 79.855469 86.40625 79.855469 L 9.152344 79.855469 C 7.570312 79.855469 6.054688 79.226562 4.9375 78.109375 C 3.820312 76.992188 3.191406 75.472656 3.191406 73.890625 L 3.191406 25.84375 C 3.191406 24.261719 3.820312 22.746094 4.9375 21.625 C 6.054688 20.507812 7.570312 19.878906 9.152344 19.878906 Z M 9.152344 19.878906 "
                  clip-rule="nonzero"/>
        </clipPath>
        <clipPath id="afdf23081b">
            <path d="M 52.53125 0 L 111.914062 0 L 111.914062 39.757812 L 52.53125 39.757812 Z M 52.53125 0 "
                  clip-rule="nonzero"/>
        </clipPath>
        <clipPath id="ae8cc131ff">
            <path d="M 55.382812 3.363281 L 109.019531 3.363281 L 109.019531 36.164062 L 55.382812 36.164062 Z M 55.382812 3.363281 "
                  clip-rule="nonzero"/>
        </clipPath>
        <clipPath id="4e74eb6bc3">
            <path d="M 11.53125 24.167969 L 33.824219 24.167969 L 33.824219 34.410156 L 11.53125 34.410156 Z M 11.53125 24.167969 "
                  clip-rule="nonzero"/>
        </clipPath>
        <clipPath id="a995910b12">
            <path d="M 11.53125 26.769531 L 16.570312 26.769531 L 16.570312 31.808594 L 11.53125 31.808594 Z M 11.53125 26.769531 "
                  clip-rule="nonzero"/>
        </clipPath>
        <clipPath id="b2bb734cfd">
            <path d="M 14.050781 26.769531 C 12.660156 26.769531 11.53125 27.898438 11.53125 29.289062 C 11.53125 30.679688 12.660156 31.808594 14.050781 31.808594 C 15.441406 31.808594 16.570312 30.679688 16.570312 29.289062 C 16.570312 27.898438 15.441406 26.769531 14.050781 26.769531 Z M 14.050781 26.769531 "
                  clip-rule="nonzero"/>
        </clipPath>
        <clipPath id="c2f18f8924">
            <path d="M 20.019531 26.769531 L 25.058594 26.769531 L 25.058594 31.808594 L 20.019531 31.808594 Z M 20.019531 26.769531 "
                  clip-rule="nonzero"/>
        </clipPath>
        <clipPath id="3839b6c609">
            <path d="M 22.539062 26.769531 C 21.148438 26.769531 20.019531 27.898438 20.019531 29.289062 C 20.019531 30.679688 21.148438 31.808594 22.539062 31.808594 C 23.929688 31.808594 25.058594 30.679688 25.058594 29.289062 C 25.058594 27.898438 23.929688 26.769531 22.539062 26.769531 Z M 22.539062 26.769531 "
                  clip-rule="nonzero"/>
        </clipPath>
        <clipPath id="42cd51ca4e">
            <path d="M 28.785156 26.769531 L 33.824219 26.769531 L 33.824219 31.808594 L 28.785156 31.808594 Z M 28.785156 26.769531 "
                  clip-rule="nonzero"/>
        </clipPath>
        <clipPath id="174d2de591">
            <path d="M 31.304688 26.769531 C 29.914062 26.769531 28.785156 27.898438 28.785156 29.289062 C 28.785156 30.679688 29.914062 31.808594 31.304688 31.808594 C 32.695312 31.808594 33.824219 30.679688 33.824219 29.289062 C 33.824219 27.898438 32.695312 26.769531 31.304688 26.769531 Z M 31.304688 26.769531 "
                  clip-rule="nonzero"/>
        </clipPath>
    </defs>
    <g clip-path="url(#3a4ca4c0e3)">
        <path d="M 0.0898438 0 L 111.914062 0 L 111.914062 82.003906 L 0.0898438 82.003906 Z M 0.0898438 0 "
              fill-opacity="0" fill-rule="nonzero"/>
        <path d="M 0.0898438 0 L 111.914062 0 L 111.914062 82.003906 L 0.0898438 82.003906 Z M 0.0898438 0 "
              fill-opacity="0" fill-rule="nonzero"/>
    </g>
    <g clip-path="url(#9e4251cc73)">
        <g clip-path="url(#f829d7d9a3)">
            <path d="M 3.191406 19.878906 L 92.460938 19.878906 L 92.460938 79.863281 L 3.191406 79.863281 Z M 3.191406 19.878906 "
                    fill-opacity="0" fill-rule="nonzero"/>
        </g>
    </g>
    <g clip-path="url(#be29cf9251)">
        <g clip-path="url(#1bcb7fdbce)">
            <path stroke-linecap="butt" transform="matrix(0.745482, 0, 0, 0.745482, 3.190455, 19.880287)" fill="none"
                  stroke-linejoin="miter"
                  d="M 7.997362 -0.00185231 L 111.626852 -0.00185231 C 113.749011 -0.00185231 115.782092 0.841771 117.280703 2.340383 C 118.784554 3.844234 119.622938 5.877315 119.622938 7.999474 L 119.622938 72.450236 C 119.622938 74.572395 118.784554 76.610716 117.280703 78.109327 C 115.782092 79.607939 113.749011 80.451562 111.626852 80.451562 L 7.997362 80.451562 C 5.875203 80.451562 3.842122 79.607939 2.343511 78.109327 C 0.8449 76.610716 0.00127578 74.572395 0.00127578 72.450236 L 0.00127578 7.999474 C 0.00127578 5.877315 0.8449 3.844234 2.343511 2.340383 C 3.842122 0.841771 5.875203 -0.00185231 7.997362 -0.00185231 Z M 7.997362 -0.00185231 "
                  stroke="#000000" stroke-width="8" stroke-opacity="1" stroke-miterlimit="4"/>
        </g>
    </g>
    <g clip-path="url(#afdf23081b)">
        <path d="M 52.53125 0 L 111.859375 0 L 111.859375 39.757812 L 52.53125 39.757812 Z M 52.53125 0 "
              fill-opacity="0" fill-rule="nonzero"/>
    </g>
    <g clip-path="url(#ae8cc131ff)">
        <path fill="#000000"
              d="M 109.046875 28.128906 C 109.046875 32.6875 105.351562 36.382812 100.792969 36.382812 L 67.769531 36.382812 C 60.933594 36.382812 55.382812 30.839844 55.382812 24.003906 C 55.382812 17.160156 60.933594 11.617188 67.769531 11.617188 C 68.484375 11.617188 69.1875 11.679688 69.875 11.796875 C 72.707031 6.761719 78.097656 3.363281 84.28125 3.363281 C 93.402344 3.363281 100.792969 10.75 100.792969 19.875 C 105.351562 19.875 109.046875 23.566406 109.046875 28.128906 "
              fill-opacity="1" fill-rule="nonzero"/>
    </g>
    <g clip-path="url(#4e74eb6bc3)">
        <path d="M 11.53125 24.167969 L 33.8125 24.167969 L 33.8125 34.410156 L 11.53125 34.410156 Z M 11.53125 24.167969 "
              fill-opacity="0" fill-rule="nonzero"/>
    </g>
    <g clip-path="url(#a995910b12)">
        <g clip-path="url(#b2bb734cfd)">
            <path fill="#000000"
                  d="M 11.53125 26.769531 L 16.570312 26.769531 L 16.570312 31.808594 L 11.53125 31.808594 Z M 11.53125 26.769531 "
                  fill-opacity="1" fill-rule="nonzero"/>
        </g>
    </g>
    <g clip-path="url(#c2f18f8924)">
        <g clip-path="url(#3839b6c609)">
            <path fill="#000000"
                  d="M 20.019531 26.769531 L 25.058594 26.769531 L 25.058594 31.808594 L 20.019531 31.808594 Z M 20.019531 26.769531 "
                  fill-opacity="1" fill-rule="nonzero"/>
        </g>
    </g>
    <g clip-path="url(#42cd51ca4e)">
        <g clip-path="url(#174d2de591)">
            <path fill="#000000"
                  d="M 28.785156 26.769531 L 33.824219 26.769531 L 33.824219 31.808594 L 28.785156 31.808594 Z M 28.785156 26.769531 "
                  fill-opacity="1" fill-rule="nonzero"/>
        </g>
    </g>
</svg>