<svg xmlns="http://www.w3.org/2000/svg" xmlns:xlink="http://www.w3.org/1999/xlink" width="1200" zoomAndPan="magnify"
     viewBox="0 0 900 899.99999" height="1200" preserveAspectRatio="xMidYMid meet" version="1.0">
    <defs>
        <clipPath id="b8df49d188">
            <path d="M 74.871094 74.894531 L 824.871094 74.894531 L 824.871094 824.894531 L 74.871094 824.894531 Z M 74.871094 74.894531 "
                  clip-rule="nonzero"/>
        </clipPath>
        <clipPath id="0d798b97c1">
            <path d="M 80.871094 74.894531 L 819.128906 74.894531 C 820.71875 74.894531 822.246094 75.527344 823.371094 76.652344 C 824.496094 77.777344 825.128906 79.300781 825.128906 80.894531 L 825.128906 819.105469 C 825.128906 820.695312 824.496094 822.222656 823.371094 823.347656 C 822.246094 824.472656 820.71875 825.105469 819.128906 825.105469 L 80.871094 825.105469 C 79.28125 825.105469 77.753906 824.472656 76.628906 823.347656 C 75.503906 822.222656 74.871094 820.695312 74.871094 819.105469 L 74.871094 80.894531 C 74.871094 79.300781 75.503906 77.777344 76.628906 76.652344 C 77.753906 75.527344 79.28125 74.894531 80.871094 74.894531 Z M 80.871094 74.894531 "
                  clip-rule="nonzero"/>
        </clipPath>
        <clipPath id="4c86c2839b">
            <path d="M 271.730469 340.308594 L 628.226562 340.308594 L 628.226562 559.667969 L 271.730469 559.667969 Z M 271.730469 340.308594 "
                  clip-rule="nonzero"/>
        </clipPath>
        <clipPath id="cac64a8d2e">
            <path d="M 127.457031 128.296875 L 174.238281 128.296875 L 174.238281 175.078125 L 127.457031 175.078125 Z M 127.457031 128.296875 "
                  clip-rule="nonzero"/>
        </clipPath>
        <clipPath id="991003e69f">
            <path d="M 150.847656 128.296875 C 137.929688 128.296875 127.457031 138.769531 127.457031 151.6875 C 127.457031 164.605469 137.929688 175.078125 150.847656 175.078125 C 163.765625 175.078125 174.238281 164.605469 174.238281 151.6875 C 174.238281 138.769531 163.765625 128.296875 150.847656 128.296875 Z M 150.847656 128.296875 "
                  clip-rule="nonzero"/>
        </clipPath>
        <clipPath id="5b75bb299f">
            <path d="M 206.273438 128.296875 L 253.054688 128.296875 L 253.054688 175.078125 L 206.273438 175.078125 Z M 206.273438 128.296875 "
                  clip-rule="nonzero"/>
        </clipPath>
        <clipPath id="fee168c01f">
            <path d="M 229.664062 128.296875 C 216.746094 128.296875 206.273438 138.769531 206.273438 151.6875 C 206.273438 164.605469 216.746094 175.078125 229.664062 175.078125 C 242.582031 175.078125 253.054688 164.605469 253.054688 151.6875 C 253.054688 138.769531 242.582031 128.296875 229.664062 128.296875 Z M 229.664062 128.296875 "
                  clip-rule="nonzero"/>
        </clipPath>
        <clipPath id="254ceaea24">
            <path d="M 287.664062 128.296875 L 334.449219 128.296875 L 334.449219 175.078125 L 287.664062 175.078125 Z M 287.664062 128.296875 "
                  clip-rule="nonzero"/>
        </clipPath>
        <clipPath id="5699faabc2">
            <path d="M 311.058594 128.296875 C 298.136719 128.296875 287.664062 138.769531 287.664062 151.6875 C 287.664062 164.605469 298.136719 175.078125 311.058594 175.078125 C 323.976562 175.078125 334.449219 164.605469 334.449219 151.6875 C 334.449219 138.769531 323.976562 128.296875 311.058594 128.296875 Z M 311.058594 128.296875 "
                  clip-rule="nonzero"/>
        </clipPath>
    </defs>
    <g clip-path="url(#b8df49d188)">
        <g clip-path="url(#0d798b97c1)">
            <path stroke-linecap="butt" transform="matrix(0.75, 0, 0, 0.75, 74.871534, 74.893353)" fill="none"
                  stroke-linejoin="miter"
                  d="M 7.999414 0.00157116 L 992.343279 0.00157116 C 994.463071 0.00157116 996.499529 0.845321 997.99953 2.345321 C 999.49953 3.845322 1000.34328 5.876572 1000.34328 8.001572 L 1000.34328 992.282937 C 1000.34328 994.402729 999.49953 996.439187 997.99953 997.939187 C 996.499529 999.439187 994.463071 1000.282938 992.343279 1000.282938 L 7.999414 1000.282938 C 5.879622 1000.282938 3.843164 999.439187 2.343164 997.939187 C 0.843164 996.439187 -0.000586576 994.402729 -0.000586576 992.282937 L -0.000586576 8.001572 C -0.000586576 5.876572 0.843164 3.845322 2.343164 2.345321 C 3.843164 0.845321 5.879622 0.00157116 7.999414 0.00157116 Z M 7.999414 0.00157116 "
                  stroke="#000000" stroke-width="20" stroke-opacity="1" stroke-miterlimit="4"/>
        </g>
    </g>
    <g clip-path="url(#4c86c2839b)">
        <path fill="#f5771d"
              d="M 628.226562 504.824219 C 628.226562 535.125 603.679688 559.667969 573.386719 559.667969 L 354.023438 559.667969 C 308.605469 559.667969 271.730469 522.851562 271.730469 477.433594 C 271.730469 431.960938 308.605469 395.144531 354.023438 395.144531 C 358.761719 395.144531 363.449219 395.558594 368.011719 396.332031 C 386.804688 362.894531 422.617188 340.304688 463.703125 340.304688 C 524.296875 340.304688 573.386719 389.390625 573.386719 449.988281 C 603.679688 449.988281 628.226562 474.53125 628.226562 504.824219 "
              fill-opacity="1" fill-rule="nonzero"/>
    </g>
    <g clip-path="url(#cac64a8d2e)">
        <g clip-path="url(#991003e69f)">
            <path fill="#000000"
                  d="M 127.457031 128.296875 L 174.238281 128.296875 L 174.238281 175.078125 L 127.457031 175.078125 Z M 127.457031 128.296875 "
                  fill-opacity="1" fill-rule="nonzero"/>
        </g>
    </g>
    <g clip-path="url(#5b75bb299f)">
        <g clip-path="url(#fee168c01f)">
            <path fill="#000000"
                  d="M 206.273438 128.296875 L 253.054688 128.296875 L 253.054688 175.078125 L 206.273438 175.078125 Z M 206.273438 128.296875 "
                  fill-opacity="1" fill-rule="nonzero"/>
        </g>
    </g>
    <g clip-path="url(#254ceaea24)">
        <g clip-path="url(#5699faabc2)">
            <path fill="#000000"
                  d="M 287.664062 128.296875 L 334.449219 128.296875 L 334.449219 175.078125 L 287.664062 175.078125 Z M 287.664062 128.296875 "
                  fill-opacity="1" fill-rule="nonzero"/>
        </g>
    </g>
</svg>